<svg width="68" height="59" viewBox="0 0 68 59" fill="none" xmlns="http://www.w3.org/2000/svg">
<g clip-path="url(#clip0_8_20)">
<path fill-rule="evenodd" clip-rule="evenodd" d="M33.9187 58.8515C48.5322 58.8515 60.3788 53.4982 60.3788 38.8847C60.3788 24.2712 48.5322 12.4246 33.9187 12.4246C19.3052 12.4246 7.45865 24.2712 7.45865 38.8847C7.45865 53.4982 19.3052 58.8515 33.9187 58.8515ZM30.1286 28.6667C30.1286 31.1902 28.0829 33.2358 25.5594 33.2358C23.0359 33.2358 20.9902 31.1902 20.9902 28.6667C20.9902 26.1432 23.0359 24.0975 25.5594 24.0975C28.0829 24.0975 30.1286 26.1432 30.1286 28.6667ZM46.8472 28.6674C46.8472 31.1914 44.8012 33.2374 42.2773 33.2374C39.7533 33.2374 37.7073 31.1914 37.7073 28.6674C37.7073 26.1435 39.7533 24.0975 42.2773 24.0975C44.8012 24.0975 46.8472 26.1435 46.8472 28.6674Z" fill="white"/>
<path d="M46.0639 11.9651C45.6946 11.7666 45.4363 11.469 45.2888 11.0724C45.1586 10.6706 45.1958 10.2795 45.4004 9.89896L49.0371 3.134C49.1755 2.87661 49.3514 2.69707 49.5647 2.59538C49.7781 2.49369 50.0246 2.51805 50.3044 2.66846C50.5954 2.82488 50.7517 3.0171 50.7733 3.24513C50.8062 3.47917 50.7534 3.72489 50.6151 3.98228L49.1351 6.73527C49.5827 6.97592 50.0446 7.21699 50.5206 7.45848C51.0078 7.70598 51.4546 7.97503 51.861 8.26561C52.2846 8.55102 52.6273 8.87952 52.8891 9.25109C53.157 9.61148 53.2924 10.0305 53.2953 10.5081C53.3154 10.9805 53.16 11.5244 52.8291 12.1399C52.3238 13.08 51.6938 13.6213 50.9392 13.7638C50.1846 13.9063 49.3597 13.7369 48.4644 13.2556L46.0639 11.9651ZM47.7738 11.2398L48.7474 11.7632C49.2286 12.0219 49.6882 12.1464 50.1262 12.1366C50.5814 12.1217 50.9534 11.8456 51.2422 11.3085C51.531 10.7713 51.553 10.3143 51.3084 9.93757C51.0809 9.55565 50.7266 9.23534 50.2454 8.97664L48.4492 8.01104L47.3754 10.0086C47.0926 10.5346 47.2254 10.945 47.7738 11.2398Z" fill="white"/>
<path d="M9.06873 22.6193C8.81854 22.9557 8.48652 23.168 8.07268 23.2561C7.65622 23.3264 7.27466 23.2327 6.92801 22.9749L0.764644 18.3919C0.53014 18.2176 0.378118 18.0174 0.308577 17.7916C0.239037 17.5657 0.299035 17.3253 0.488572 17.0704C0.68569 16.8053 0.898626 16.6786 1.12738 16.6904C1.36371 16.692 1.59913 16.78 1.83363 16.9543L4.3418 18.8194C4.64506 18.4115 4.9508 17.9897 5.25903 17.5539C5.57484 17.1079 5.90607 16.705 6.25273 16.3453C6.59677 15.9678 6.97166 15.6766 7.3774 15.4716C7.77294 15.2591 8.20718 15.1861 8.68011 15.2528C9.15042 15.3017 9.66596 15.5346 10.2267 15.9516C11.0832 16.5884 11.527 17.2905 11.5581 18.0578C11.5892 18.8251 11.3015 19.6166 10.695 20.4323L9.06873 22.6193ZM8.60011 20.8221L9.2597 19.935C9.58571 19.4966 9.77577 19.06 9.82988 18.6253C9.88138 18.1727 9.66244 17.7645 9.17304 17.4006C8.68364 17.0367 8.23476 16.9483 7.82641 17.1355C7.41544 17.3049 7.04695 17.6088 6.72095 18.0472L5.50412 19.6837L7.32407 21.037C7.80327 21.3933 8.22862 21.3217 8.60011 20.8221Z" fill="white"/>
<path d="M31.8985 9.93883C31.4792 9.93883 31.1108 9.79906 30.7931 9.51954C30.4882 9.22731 30.3357 8.8652 30.3357 8.43321V0.75265C30.3357 0.46042 30.4056 0.219013 30.5454 0.0284286C30.6851 -0.162156 30.9138 -0.257448 31.2315 -0.257448C31.5618 -0.257448 31.7905 -0.162156 31.9176 0.0284286C32.0573 0.219013 32.1272 0.46042 32.1272 0.75265V3.87824C32.6354 3.87824 33.1564 3.87188 33.69 3.85918C34.2364 3.84647 34.7573 3.87188 35.2528 3.93541C35.761 3.98623 36.2184 4.11329 36.625 4.31658C37.0316 4.50717 37.3492 4.8121 37.5779 5.23139C37.8193 5.63797 37.9401 6.19066 37.9401 6.88947C37.9401 7.95675 37.6415 8.73179 37.0443 9.2146C36.4471 9.69742 35.6403 9.93883 34.6239 9.93883H31.8985ZM33.0611 8.49038H34.1665C34.7128 8.49038 35.1766 8.38239 35.5577 8.16639C35.9516 7.93769 36.1486 7.5184 36.1486 6.90853C36.1486 6.29866 35.9516 5.88573 35.5577 5.66973C35.1766 5.44103 34.7128 5.32668 34.1665 5.32668H32.1272V7.59464C32.1272 8.1918 32.4385 8.49038 33.0611 8.49038Z" fill="white"/>
<path d="M17.618 14.4992C17.0675 14.7899 16.638 14.6432 16.3294 14.059L12.3683 6.55988C12.0597 5.97568 12.1806 5.53819 12.7311 5.24741C13.0232 5.09312 13.2726 5.06198 13.4793 5.15399C13.6859 5.246 13.8605 5.42682 14.0029 5.69645L15.436 8.40962L16.2449 7.98236C16.6044 7.79246 16.8352 7.56281 16.9372 7.29341C17.0332 7.01277 17.0549 6.7139 17.0024 6.3968C16.9499 6.07969 16.8716 5.75463 16.7675 5.42163C16.6688 5.07145 16.5987 4.73484 16.5574 4.4118C16.5161 4.08876 16.5464 3.79254 16.6484 3.52314C16.7557 3.23656 16.9891 2.99833 17.3486 2.80843C17.5171 2.71942 17.7398 2.63772 18.0166 2.56334C18.3047 2.48303 18.5798 2.45984 18.842 2.49377C19.1042 2.52771 19.2947 2.65702 19.4134 2.88172C19.6448 3.31987 19.5583 3.64576 19.1538 3.85939C19.0752 3.90093 18.9421 3.92095 18.7545 3.91946C18.5669 3.91796 18.4225 3.94391 18.3214 3.99732C18.1754 4.07447 18.1075 4.21807 18.1179 4.42813C18.1336 4.62102 18.1842 4.85292 18.2698 5.12382C18.3555 5.39472 18.4358 5.68278 18.5108 5.98802C18.5858 6.29326 18.604 6.59977 18.5654 6.90754C18.538 7.20938 18.4136 7.49065 18.1921 7.75135C18.7635 7.63629 19.3216 7.68636 19.8664 7.90155C20.4164 8.09956 20.9169 8.36689 21.3677 8.70353C21.5294 8.81927 21.7492 8.99056 22.0271 9.21738C22.3102 9.42704 22.5795 9.65121 22.8349 9.88991C23.0903 10.1286 23.2685 10.3434 23.3694 10.5344C23.4999 10.7816 23.5248 11.0055 23.444 11.2063C23.3686 11.3898 23.2072 11.5469 22.9601 11.6774C22.7129 11.808 22.4688 11.822 22.2278 11.7193C22.0846 11.6657 21.8882 11.5252 21.6387 11.2977C21.3945 11.0531 21.1157 10.7836 20.8022 10.4894C20.5 10.1892 20.1839 9.9036 19.8539 9.63247C19.5351 9.3554 19.2179 9.14935 18.9023 9.0143C18.5695 8.87395 18.2475 8.83567 17.9364 8.89945C17.6305 8.94606 17.3259 9.04948 17.0225 9.2097L16.1125 9.69038L17.964 13.1956C18.1064 13.4652 18.1574 13.7113 18.1169 13.9339C18.0764 14.1564 17.9101 14.3449 17.618 14.4992Z" fill="white"/>
<path d="M55.5412 18.6106C55.1718 18.1094 55.2531 17.6629 55.7849 17.2709L62.6121 12.2392C63.1439 11.8473 63.5946 11.9019 63.9639 12.403C64.1599 12.669 64.2278 12.9109 64.1675 13.129C64.1072 13.347 63.9543 13.5465 63.7089 13.7274L61.2388 15.5478L61.7816 16.2843C62.0228 16.6116 62.2842 16.8056 62.5657 16.8664C62.8575 16.9197 63.1563 16.8968 63.4621 16.7977C63.7679 16.6986 64.0777 16.5728 64.3915 16.4205C64.7231 16.2708 65.0456 16.1515 65.3589 16.0626C65.6722 15.9738 65.9697 15.9597 66.2512 16.0205C66.5506 16.084 66.8208 16.2794 67.0621 16.6067C67.1751 16.7601 67.289 16.9682 67.4037 17.2309C67.5259 17.5038 67.5898 17.7725 67.5952 18.0368C67.6006 18.3011 67.501 18.5087 67.2965 18.6594C66.8976 18.9534 66.5624 18.9163 66.2911 18.5481C66.2383 18.4765 66.1987 18.3478 66.1723 18.1621C66.1459 17.9764 66.0988 17.8375 66.031 17.7454C65.933 17.6125 65.7809 17.5667 65.5747 17.6082C65.3863 17.6524 65.1645 17.7369 64.9093 17.8618C64.6541 17.9868 64.3812 18.109 64.0905 18.2286C63.7998 18.3481 63.4994 18.4117 63.1893 18.4192C62.8868 18.437 62.5901 18.3558 62.2994 18.1754C62.4981 18.7235 62.5315 19.2828 62.3997 19.8535C62.2856 20.4268 62.0956 20.9615 61.8298 21.4573C61.7393 21.6344 61.6026 21.8772 61.4196 22.1857C61.2544 22.4969 61.0727 22.7965 60.8746 23.0846C60.6765 23.3726 60.4906 23.5807 60.3167 23.7089C60.0917 23.8747 59.8739 23.9326 59.6634 23.8826C59.4707 23.8352 59.2914 23.699 59.1255 23.474C58.9597 23.249 58.9096 23.0097 58.9753 22.7561C59.007 22.6065 59.1168 22.3914 59.3047 22.1109C59.5103 21.8331 59.7353 21.5173 59.9797 21.1636C60.2316 20.8201 60.4671 20.465 60.6861 20.0983C60.9128 19.7419 61.0694 19.3976 61.156 19.0655C61.2454 18.7155 61.2354 18.3914 61.126 18.0932C61.0345 17.7977 60.8869 17.5118 60.6834 17.2356L60.0728 16.4072L56.8817 18.7591C56.6362 18.94 56.4005 19.0269 56.1743 19.02C55.9482 19.013 55.7372 18.8765 55.5412 18.6106Z" fill="white"/>
</g>
<defs>
<clipPath id="clip0_8_20">
<rect width="68" height="59" fill="white"/>
</clipPath>
</defs>
</svg>
